<?xml version="1.0" standalone="no"?>
<!DOCTYPE svg PUBLIC "-//W3C//DTD SVG 20010904//EN"
 "http://www.w3.org/TR/2001/REC-SVG-20010904/DTD/svg10.dtd">
<svg version="1.0" xmlns="http://www.w3.org/2000/svg"
 width="880.000000pt" height="480.000000pt" viewBox="0 0 880.000000 480.000000"
 preserveAspectRatio="xMidYMid meet">

<g transform="translate(0.000000,480.000000) scale(0.100000,-0.100000)"
fill="#000000" stroke="none">
<path d="M4320 4384 c0 -3 9 -13 19 -22 11 -10 26 -48 36 -89 17 -72 38 -114
50 -101 7 7 -17 126 -36 174 -5 16 -16 32 -22 36 -14 9 -47 10 -47 2z"/>
<path d="M4483 4371 c2 -12 9 -27 16 -34 10 -10 12 -6 9 17 -2 16 -9 31 -16
34 -8 2 -11 -4 -9 -17z"/>
<path d="M4708 4360 c-28 -29 -30 -35 -26 -90 6 -78 25 -100 89 -100 26 0 51
5 54 10 4 6 -8 10 -29 10 -50 0 -76 31 -76 89 1 66 20 86 80 86 37 0 46 3 38
13 -6 6 -30 12 -55 12 -36 0 -50 -6 -75 -30z"/>
<path d="M4923 4365 c-3 -9 -3 -18 0 -21 9 -9 27 6 27 22 0 19 -19 18 -27 -1z"/>
<path d="M4278 4275 c4 -82 2 -99 -13 -115 -23 -25 -15 -33 19 -21 26 10 26
12 26 105 0 100 -5 126 -24 126 -9 0 -11 -26 -8 -95z"/>
<path d="M5017 4320 c-17 -44 -54 -51 -83 -17 l-23 27 -7 -48 c-3 -26 -11 -55
-16 -65 -5 -10 -7 -21 -4 -24 3 -4 11 8 17 25 12 36 10 35 42 23 21 -8 29 -5
52 22 16 18 39 44 53 60 l26 27 -23 0 c-16 0 -26 -9 -34 -30z"/>
<path d="M4532 4313 c-18 -7 -4 -23 22 -23 30 0 46 -18 46 -52 0 -22 -6 -29
-27 -34 -37 -10 -57 7 -61 50 -2 20 -7 36 -13 36 -11 0 -12 -90 0 -109 13 -20
101 -9 118 15 41 57 -21 143 -85 117z"/>
<path d="M5195 4281 c-16 -11 -50 -44 -75 -75 -25 -30 -53 -55 -62 -55 -34 -2
-18 -21 17 -21 30 0 37 5 60 44 26 45 62 83 70 74 2 -2 1 -24 -3 -49 -6 -35
-12 -45 -30 -47 -29 -4 -28 -16 3 -30 14 -6 25 -18 25 -26 0 -18 48 -76 62
-76 6 0 4 8 -5 18 -12 13 -16 41 -18 117 0 55 0 105 1 110 4 18 0 35 -7 35 -5
0 -21 -9 -38 -19z"/>
<path d="M4030 4260 c0 -13 7 -20 18 -20 19 0 82 -59 82 -77 0 -6 -9 -13 -20
-16 -14 -4 -28 5 -49 31 l-29 37 5 -30 c2 -17 9 -54 15 -83 l10 -53 19 22 c10
12 19 30 19 40 0 24 33 33 76 19 19 -7 38 -10 40 -7 3 3 -28 39 -68 81 -75 78
-118 98 -118 56z"/>
<path d="M4980 4211 c0 -11 5 -23 10 -26 6 -3 10 3 10 14 0 11 -4 23 -10 26
-5 3 -10 -3 -10 -14z"/>
<path d="M3897 4173 c-13 -13 -7 -31 13 -36 11 -3 26 -19 33 -35 10 -24 14
-27 25 -16 19 20 14 48 -11 72 -23 22 -48 28 -60 15z"/>
<path d="M3845 4146 c-18 -13 -18 -15 -2 -49 10 -20 28 -49 41 -64 13 -15 26
-38 30 -50 8 -24 21 -30 31 -13 7 12 -14 54 -54 103 -25 32 -28 43 -21 63 11
27 3 30 -25 10z"/>
<path d="M5367 4133 c-12 -15 -38 -45 -57 -67 -19 -23 -25 -33 -13 -23 12 11
26 16 32 13 5 -3 12 0 14 6 3 7 6 4 7 -7 1 -16 4 -14 14 10 7 17 11 33 9 38
-3 4 -1 6 4 5 4 -1 17 3 28 9 19 11 26 13 43 13 9 1 -40 29 -51 30 -4 0 -17
-12 -30 -27z m-7 -51 c0 -5 -7 -9 -15 -9 -8 0 -12 4 -9 9 3 4 9 8 15 8 5 0 9
-4 9 -8z"/>
<path d="M5452 4088 c-6 -15 -20 -32 -31 -37 -19 -11 -61 -71 -61 -87 1 -5 10
2 20 15 11 13 20 20 20 15 0 -4 20 12 45 36 40 39 60 71 36 55 -5 -3 -11 3
-14 12 -3 15 -6 13 -15 -9z"/>
<path d="M3760 4082 c0 -10 7 -42 16 -71 8 -29 19 -81 22 -115 5 -45 11 -61
22 -61 23 0 15 83 -17 182 -24 78 -43 106 -43 65z"/>
<path d="M4535 4079 c-145 -10 -282 -40 -270 -60 4 -5 0 -6 -8 -3 -8 3 -17 -2
-20 -10 -4 -9 -17 -16 -31 -16 -14 0 -32 -7 -40 -16 -9 -8 -16 -12 -16 -8 0 4
-10 -2 -22 -13 -13 -11 -35 -27 -50 -34 -74 -38 -224 -185 -373 -364 -32 -38
-61 -74 -65 -78 -11 -12 -60 33 -60 55 0 11 27 50 61 85 72 77 78 91 73 162
-6 92 -53 120 -112 67 -54 -48 -80 -60 -98 -45 -8 6 -14 20 -14 29 0 24 -10
50 -20 50 -10 0 -60 -47 -60 -57 0 -5 -13 -24 -28 -43 l-29 -33 -21 21 c-12
12 -22 31 -22 43 0 27 -19 61 -30 54 -5 -3 -18 -35 -29 -71 -11 -35 -25 -73
-31 -84 -17 -32 -48 -25 -67 16 -25 51 -37 48 -41 -9 l-3 -49 -42 8 c-70 12
-82 11 -83 -11 0 -11 -6 -48 -14 -83 -15 -67 -13 -65 -94 -76 -21 -3 -47 -13
-58 -23 -30 -26 -58 -87 -65 -138 -7 -51 -16 -59 -82 -69 -53 -8 -187 -72
-196 -93 -5 -14 9 -15 119 -9 164 9 213 -9 241 -90 14 -41 66 -100 97 -110 24
-7 27 -9 87 -61 76 -65 89 -130 47 -233 -14 -33 -38 -80 -54 -104 l-30 -43 4
-179 c2 -157 0 -188 -18 -248 -19 -67 -19 -71 -3 -99 14 -23 16 -42 12 -86 -7
-61 -47 -230 -72 -300 -21 -59 -20 -63 18 -59 31 3 32 2 35 -38 2 -23 -8 -95
-22 -160 -14 -66 -36 -172 -50 -236 -13 -64 -27 -146 -31 -182 -7 -62 -6 -66
11 -59 34 12 66 42 110 102 23 32 50 62 61 66 19 8 635 7 643 -1 2 -3 -1 -13
-8 -22 -7 -9 -15 -24 -19 -32 -3 -8 -24 -53 -45 -100 -22 -47 -42 -99 -45
-116 -5 -28 -1 -34 43 -62 26 -18 51 -32 55 -32 17 0 39 46 39 82 0 67 42 63
89 -9 17 -26 31 -42 32 -37 0 5 5 -6 12 -25 16 -45 32 -49 45 -11 13 37 24 37
87 0 222 -130 401 -176 646 -167 153 6 219 21 357 83 29 13 58 24 65 24 7 0
21 7 31 15 10 8 22 12 27 10 26 -17 297 208 336 278 7 12 12 18 13 14 0 -15
60 61 60 77 0 9 7 16 15 16 8 0 21 14 30 30 9 17 14 30 11 30 -2 0 8 13 23 29
14 15 35 46 46 67 11 21 28 50 38 63 9 13 17 30 17 38 0 8 7 21 15 29 8 9 15
28 15 42 0 15 7 38 16 50 8 12 13 22 10 22 -3 0 7 33 21 72 14 40 26 80 27 88
2 8 10 31 19 50 12 26 17 30 18 15 0 -12 4 -6 9 14 5 19 6 40 3 48 -3 7 0 13
5 13 14 0 36 104 33 157 -1 22 7 72 19 110 19 59 22 94 23 258 1 118 -3 211
-11 245 -7 30 -13 85 -14 123 -1 37 -5 67 -10 67 -4 0 -8 15 -8 34 0 18 -6 52
-14 74 -8 22 -12 43 -9 46 4 3 1 16 -5 29 -12 25 -26 78 -24 90 1 4 -4 22 -12
41 -8 19 -14 49 -14 67 -1 38 -71 203 -100 234 -27 28 -44 64 -37 75 3 6 -1 7
-9 4 -11 -4 -19 2 -25 19 -5 13 -16 27 -24 30 -8 3 -18 19 -22 36 -4 17 -13
31 -21 31 -7 0 -16 11 -20 25 -3 14 -10 23 -14 20 -4 -3 -13 9 -20 26 -9 20
-16 26 -20 18 -5 -8 -10 -4 -15 12 -4 13 -25 41 -46 62 -21 20 -40 45 -43 55
-3 10 -15 24 -27 32 -11 8 -36 30 -56 47 -37 34 -162 120 -191 130 -9 4 -23
13 -30 20 -7 7 -22 13 -33 13 -10 0 -19 5 -19 11 0 6 -6 9 -14 6 -8 -3 -17 1
-20 9 -3 8 -9 13 -13 12 -16 -3 -103 25 -98 32 16 25 -186 48 -340 39z m278
-73 c90 -22 202 -63 257 -94 155 -88 313 -233 409 -376 31 -46 56 -74 63 -70
7 4 8 3 4 -5 -4 -6 10 -39 31 -74 106 -169 194 -419 241 -687 29 -158 33 -209
33 -357 0 -419 -110 -824 -316 -1163 -69 -114 -139 -202 -231 -292 -86 -82
-108 -101 -211 -171 -45 -30 -79 -57 -75 -60 4 -2 2 -3 -5 -1 -6 1 -46 -11
-90 -28 -128 -50 -171 -59 -319 -65 -163 -7 -266 8 -409 58 -166 58 -256 142
-199 184 14 10 10 15 -32 34 -66 31 -184 122 -246 190 -169 185 -300 463 -327
696 -13 109 -16 479 -6 629 6 87 5 110 -6 117 -10 6 -10 9 -1 9 6 0 12 5 12
10 0 7 -6 8 -17 1 -11 -6 -24 -6 -35 0 -21 11 -58 80 -58 108 0 12 -9 22 -22
27 -62 18 -72 57 -34 132 37 72 53 83 133 85 56 2 77 7 106 27 47 32 47 47 -3
55 -22 4 -42 10 -44 13 -10 18 15 118 34 134 11 9 20 23 20 31 0 8 9 26 20 39
11 14 21 41 22 59 3 28 0 34 -17 34 -12 0 -21 -8 -23 -20 -1 -11 -19 -55 -40
-97 -35 -73 -40 -78 -93 -103 -92 -41 -170 -28 -251 44 -57 50 -82 112 -83
201 0 86 20 133 82 198 46 47 100 59 194 42 135 -25 303 -141 376 -260 34 -56
39 -124 13 -195 -12 -33 -22 -72 -21 -87 1 -18 -4 -28 -12 -28 -15 0 -82 -78
-74 -86 3 -3 18 1 34 10 28 14 33 13 85 -13 30 -15 79 -46 109 -69 30 -22 67
-46 83 -52 27 -10 28 -9 15 7 -8 9 -33 34 -56 56 -81 75 -141 191 -106 204 16
6 107 -33 125 -54 6 -7 17 -13 24 -13 22 0 16 25 -8 39 -13 7 -31 30 -41 51
-10 22 -32 54 -50 72 -17 18 -32 39 -33 47 -2 7 -7 18 -13 24 -6 6 -11 27 -11
48 0 28 9 46 40 82 l41 46 -50 52 c-36 38 -48 56 -43 70 17 45 250 304 336
375 117 94 263 162 404 189 95 18 270 13 365 -9z m322 -106 c3 -6 -1 -7 -9 -4
-18 7 -21 14 -7 14 6 0 13 -4 16 -10z"/>
<path d="M4435 3865 c-78 -22 -229 -101 -293 -154 -64 -54 -173 -160 -276
-269 l-69 -73 21 -21 c34 -35 120 -36 211 -4 86 30 107 32 115 10 8 -22 10
-18 -35 -70 -42 -49 -41 -63 7 -64 26 0 57 -33 52 -56 -3 -19 -57 -42 -100
-43 -16 -1 -28 -5 -28 -10 0 -5 19 -33 41 -61 23 -29 50 -78 61 -109 11 -31
24 -61 28 -66 5 -6 25 -55 44 -109 44 -122 107 -223 186 -301 33 -33 60 -65
60 -72 0 -7 -11 -15 -25 -19 -30 -7 -32 -23 -7 -55 46 -59 105 -193 131 -296
11 -43 35 -113 53 -157 28 -67 46 -92 128 -176 52 -54 107 -105 123 -115 33
-21 35 -50 5 -82 l-22 -23 28 -29 c48 -51 10 -85 -82 -75 -62 7 -70 -3 -78
-97 -7 -82 -20 -114 -71 -175 -44 -54 -102 -72 -175 -56 -66 16 -87 15 -154
-5 -66 -21 -67 -23 -83 -152 -13 -102 -10 -111 38 -135 68 -35 314 -49 443
-26 135 25 283 99 405 203 46 39 83 73 83 76 0 3 34 46 75 94 40 48 77 98 81
110 4 12 21 40 39 62 39 48 74 116 105 205 13 36 27 70 30 75 14 19 51 139 85
269 49 191 69 376 61 560 -15 355 -79 608 -235 926 -67 137 -127 215 -264 345
-94 90 -126 114 -202 150 -135 65 -224 85 -369 84 -68 0 -143 -7 -171 -14z"/>
<path d="M3149 3250 c-1 -17 -5 -33 -9 -40 -1 -3 -3 -22 -4 -42 -2 -28 3 -43
21 -60 33 -31 47 -13 38 49 -6 49 -44 123 -46 93z"/>
<path d="M4070 2727 c0 -2 6 -22 14 -43 7 -22 17 -63 21 -92 6 -45 5 -52 -10
-52 -10 0 -33 14 -52 31 -34 29 -56 33 -36 7 5 -7 18 -35 28 -62 10 -27 25
-56 34 -65 9 -9 27 -31 39 -49 25 -35 46 -41 56 -16 16 42 -3 233 -26 262 -6
7 -18 27 -27 44 -13 27 -41 50 -41 35z"/>
<path d="M3754 2666 c-3 -7 20 -83 51 -167 73 -197 81 -227 66 -242 -18 -18
-37 -1 -124 107 -43 53 -85 96 -94 96 -10 0 -13 -5 -8 -17 4 -10 15 -40 25
-68 52 -145 160 -321 215 -349 16 -9 46 -29 65 -45 19 -16 45 -32 56 -35 19
-6 22 -2 28 41 3 27 2 63 -3 81 -6 18 -13 70 -16 115 -4 45 -12 109 -19 142
-14 67 -82 200 -136 266 -73 89 -95 105 -106 75z"/>
<path d="M4285 2191 c-3 -11 -2 -29 4 -39 10 -19 34 -128 44 -204 3 -22 0 -43
-8 -55 -13 -17 -14 -17 -35 2 -12 11 -40 50 -61 87 -40 69 -55 80 -66 53 -7
-19 40 -161 71 -214 26 -46 80 -114 126 -158 30 -29 35 -31 43 -16 19 32 28
185 16 257 -14 83 -48 184 -84 248 -32 57 -42 65 -50 39z"/>
<path d="M3636 2125 c-4 -16 -4 -79 0 -141 8 -134 3 -164 -30 -164 -14 0 -27
9 -33 23 -40 86 -66 137 -70 137 -16 0 22 -244 47 -305 5 -11 11 -29 14 -41
10 -34 81 -97 102 -90 39 12 49 61 49 241 0 181 -20 304 -55 348 -17 20 -17
20 -24 -8z"/>
<path d="M3990 1835 c0 -3 14 -49 30 -102 17 -54 38 -119 46 -145 8 -27 17
-68 20 -92 6 -38 4 -45 -14 -50 -12 -4 -30 -2 -41 3 -27 15 -74 77 -105 141
-15 30 -36 66 -46 80 l-20 25 0 -30 c0 -97 91 -334 157 -410 87 -99 163 -165
192 -165 14 0 14 199 1 294 -6 38 -24 108 -41 155 -17 47 -34 100 -39 117 -14
60 -64 145 -96 165 -31 19 -44 23 -44 14z"/>
<path d="M4404 1535 c-4 -9 5 -50 18 -93 14 -42 23 -83 21 -89 -10 -25 -40
-12 -61 26 -23 40 -47 57 -57 41 -11 -18 58 -138 105 -185 l49 -48 7 28 c14
55 -4 206 -33 273 -26 63 -39 75 -49 47z"/>
<path d="M3800 1330 c0 -5 11 -43 25 -84 26 -78 32 -126 15 -126 -15 0 -50 38
-50 53 0 18 -38 52 -47 43 -21 -20 92 -224 133 -240 24 -9 35 22 35 102 0 71
-4 89 -36 159 -20 43 -45 84 -55 91 -12 7 -20 8 -20 2z"/>
<path d="M3655 3970 c3 -5 0 -10 -7 -11 -7 -1 6 -7 29 -14 23 -7 52 -11 64 -8
19 5 18 8 -17 24 -45 22 -47 23 -38 7 6 -10 4 -10 -7 0 -16 14 -33 16 -24 2z"/>
<path d="M5594 3959 c-19 -22 -19 -22 4 -10 16 9 22 9 22 0 0 -6 6 -9 14 -6
18 7 46 -34 46 -68 0 -20 -16 -37 -77 -82 -52 -39 -72 -59 -61 -61 9 -2 30 3
45 12 40 20 133 105 133 120 0 7 -10 24 -22 38 -13 14 -33 37 -45 51 -28 33
-34 33 -59 6z"/>
<path d="M5510 3879 c-25 -23 -35 -36 -23 -30 12 6 25 16 28 21 4 6 12 7 18 4
7 -4 9 -3 4 1 -4 5 0 17 10 27 27 30 11 20 -37 -23z"/>
<path d="M5773 3796 c0 -14 6 -27 13 -30 15 -6 18 12 8 38 -9 24 -21 19 -21
-8z"/>
<path d="M5701 3678 c-36 -28 -59 -54 -53 -56 17 -5 108 53 104 68 -1 6 2 9 8
5 15 -9 30 3 23 20 -3 8 -8 15 -12 15 -3 0 -35 -23 -70 -52z"/>
<path d="M5830 3701 c0 -4 9 -12 20 -18 20 -13 34 -5 22 13 -7 11 -42 15 -42
5z"/>
<path d="M5794 3565 c-10 -8 -14 -15 -8 -15 6 0 17 7 24 15 16 19 9 19 -16 0z"/>
<path d="M5890 3476 c-24 -13 -46 -29 -48 -36 -3 -8 1 -9 14 -2 11 5 36 17 57
26 20 8 37 20 37 26 0 15 -11 12 -60 -14z"/>
<path d="M5928 3361 c-53 -20 -100 -40 -104 -43 -3 -4 1 -14 10 -23 9 -9 16
-30 16 -47 0 -18 7 -36 17 -43 16 -12 16 -15 -7 -33 -18 -15 -22 -24 -14 -32
15 -15 42 -2 58 29 11 20 30 30 87 47 67 19 103 44 87 59 -4 4 -48 -10 -99
-30 -50 -20 -95 -33 -99 -28 -4 4 -10 26 -14 49 -5 37 -3 42 20 52 14 7 29 12
34 12 27 0 120 43 120 56 0 18 1 19 -112 -25z"/>
<path d="M6014 3141 c-45 -15 -86 -31 -93 -35 -6 -4 -11 -32 -11 -63 l0 -56
21 19 c15 13 19 26 15 46 -4 20 0 34 14 48 29 29 37 25 44 -19 6 -42 36 -79
36 -45 0 11 -4 36 -9 57 -8 35 -8 37 16 37 20 0 28 -9 45 -50 11 -27 25 -50
29 -50 5 0 9 3 9 8 -1 12 -28 124 -32 127 -2 2 -40 -9 -84 -24z"/>
<path d="M2707 3077 c-8 -21 4 -108 29 -205 27 -109 88 -230 127 -252 25 -14
28 -13 56 14 75 72 102 144 75 198 -9 17 -38 39 -79 59 -62 30 -68 36 -98 100
-37 78 -95 124 -110 86z"/>
<path d="M6045 2969 c-4 -5 -19 -9 -33 -7 -22 2 -28 -2 -30 -20 -3 -22 -3 -23
32 -8 25 10 45 12 66 6 37 -11 48 3 18 24 -26 19 -44 20 -53 5z"/>
<path d="M6125 2909 c-16 -5 -55 -14 -85 -20 -75 -15 -102 -27 -95 -40 4 -6
13 -8 21 -5 7 3 16 1 19 -3 3 -5 30 0 60 11 61 22 85 19 85 -11 0 -21 -44 -41
-91 -41 -33 0 -38 -15 -10 -30 58 -31 137 17 125 76 -4 21 -1 34 10 43 9 7 13
17 10 22 -6 10 -8 10 -49 -2z"/>
<path d="M5970 2713 c0 -18 25 -33 57 -33 26 0 33 -4 33 -19 0 -11 -5 -23 -10
-26 -10 -6 -54 -85 -47 -85 1 0 20 9 42 20 21 11 54 23 72 26 19 4 33 12 33
20 0 8 14 17 30 21 34 6 34 7 20 34 -14 26 -39 24 -49 -4 -15 -40 -91 -77 -91
-44 0 20 14 35 43 46 31 12 35 27 10 35 -39 11 -143 17 -143 9z"/>
<path d="M6170 2521 c0 -6 3 -11 8 -11 4 0 9 -26 10 -57 4 -64 7 -73 27 -73
19 0 22 18 16 85 -6 56 -8 60 -33 63 -16 2 -28 -1 -28 -7z m50 -11 c0 -5 -4
-10 -10 -10 -5 0 -10 5 -10 10 0 6 5 10 10 10 6 0 10 -4 10 -10z"/>
<path d="M6075 2509 c-22 -3 -33 -7 -25 -8 21 -2 50 -37 50 -61 0 -11 6 -20
13 -20 6 0 4 -5 -6 -11 -10 -6 -30 -9 -45 -7 -25 3 -27 6 -24 46 3 33 0 42
-12 42 -13 0 -16 -12 -16 -55 0 -49 2 -55 24 -61 13 -3 38 -4 57 -2 33 3 34 4
37 53 2 27 8 55 13 62 16 18 -19 30 -66 22z"/>
<path d="M2887 2354 c-13 -13 -7 -24 14 -24 11 0 19 5 17 12 -5 14 -22 21 -31
12z"/>
<path d="M6003 2307 c-9 -14 19 -27 52 -25 28 3 30 1 27 -30 -3 -38 14 -35 29
5 7 20 15 24 41 21 60 -6 71 -78 13 -78 -12 0 -28 7 -35 15 -18 22 -30 18 -30
-10 0 -28 25 -45 68 -45 41 0 58 26 66 95 l6 60 -116 0 c-64 0 -118 -4 -121
-8z"/>
<path d="M6036 2110 c31 -12 39 -30 15 -30 -10 0 -22 6 -24 13 -4 9 -6 9 -6 0
-1 -15 38 -53 56 -53 7 0 18 -10 24 -22 7 -13 17 -26 23 -30 6 -4 -19 -6 -56
-4 -38 2 -68 0 -68 -5 0 -16 37 -28 103 -33 37 -2 72 -8 78 -12 10 -6 28 11
29 28 0 4 -16 12 -35 19 -19 7 -35 16 -35 20 0 4 -13 20 -30 36 -16 15 -30 31
-30 34 0 3 12 12 28 19 25 12 26 13 7 21 -11 4 -38 8 -60 8 -32 0 -36 -2 -19
-9z"/>
<path d="M6150 2084 c8 -8 22 -20 33 -26 16 -8 23 -7 34 8 21 29 16 34 -33 34
-41 0 -45 -2 -34 -16z"/>
<path d="M5970 1880 c0 -16 48 -31 110 -35 30 -2 67 -6 81 -10 35 -9 48 12 16
24 -13 5 -50 12 -82 15 -32 4 -73 9 -92 12 -20 3 -33 1 -33 -6z"/>
<path d="M6065 1805 c-5 -2 -31 -6 -57 -10 -32 -4 -48 -11 -48 -21 0 -11 14
-13 64 -11 49 1 68 -2 83 -15 21 -20 63 -24 63 -8 0 6 -8 14 -17 17 -10 4 -31
16 -48 28 -16 13 -34 21 -40 20z"/>
<path d="M5960 1685 c0 -21 36 -55 59 -55 11 0 28 -3 38 -7 16 -6 16 -5 3 8
-33 31 -82 69 -91 69 -5 0 -9 -7 -9 -15z"/>
<path d="M6080 1585 c-7 -8 -22 -15 -34 -15 -17 0 -18 -2 -6 -10 25 -16 68
-12 79 9 17 31 -15 44 -39 16z"/>
<path d="M5939 1574 c-9 -11 -5 -16 17 -24 26 -10 43 -2 44 21 0 14 -50 16
-61 3z"/>
<path d="M3138 1022 c-24 -5 -22 -21 5 -56 28 -34 76 -45 215 -45 83 -1 92 -3
92 -20 0 -17 -79 -179 -146 -299 -38 -67 -34 -73 38 -70 l63 3 102 230 c56
127 103 238 103 247 0 15 -20 17 -227 15 -126 -1 -236 -3 -245 -5z"/>
<path d="M3016 968 c-111 -179 -236 -405 -236 -428 0 -8 16 -9 48 -5 74 10 93
15 87 24 -10 18 33 24 160 22 145 -3 144 -3 177 71 l17 36 -69 99 c-155 221
-157 223 -184 181z m65 -201 c37 -33 61 -75 54 -97 -6 -18 -16 -20 -81 -20
-88 0 -95 8 -63 71 40 78 48 82 90 46z"/>
<path d="M3216 871 c-18 -7 -14 -13 34 -59 30 -29 62 -52 71 -52 24 0 81 91
67 107 -12 14 -139 17 -172 4z"/>
<path d="M3777 673 c-12 -11 -8 -23 8 -23 8 0 15 7 15 15 0 16 -12 20 -23 8z"/>
</g>
</svg>
